<svg width="100" height="100" fill="none" xmlns="http://www.w3.org/2000/svg"><path d="M50 0C22.386 0 0 22.386 0 50s22.386 50 50 50 50-22.386 50-50C99.97 22.398 77.602.03 50 0zm0 92.857C26.33 92.857 7.143 73.669 7.143 50 7.143 26.33 26.33 7.143 50 7.143 73.67 7.143 92.857 26.33 92.857 50 92.832 73.659 73.659 92.832 50 92.857z" fill="#28A745"/><path d="M77.052 29.616a3.571 3.571 0 00-4.962 0L38.901 62.805l-11.76-11.76a3.571 3.571 0 10-5.05 5.05L36.375 70.38a3.571 3.571 0 005.05 0L77.14 34.666a3.571 3.571 0 00-.088-5.05z" fill="#28A745"/></svg>