<svg width="42" height="24" fill="none" xmlns="http://www.w3.org/2000/svg"><path d="M40.43 21.8h-2.742V1.256c0-.42-.279-.762-.654-.762h-5.546c-.375 0-.654.342-.654.762V21.8h-1.937V8.372c0-.42-.28-.762-.654-.762h-5.585c-.374 0-.653.342-.653.762v13.429h-1.938V7.305c0-.42-.279-.762-.654-.762h-5.546c-.375 0-.654.342-.654.762V21.8h-1.938V11.486c0-.42-.279-.762-.653-.762H5.037c-.374 0-.653.342-.653.762v10.315h-2.78c-.375 0-.654.342-.654.762s.28.761.654.761h38.789c.374 0 .652-.34.653-.76.04-.422-.242-.763-.616-.763zm-30.5 0H5.691v-9.552h4.24V21.8zm8.83 0h-4.24V8.067h4.24v13.735zm8.791 0h-4.239V9.135h4.24V21.8zm8.83 0h-4.24V2.017h4.24v19.785z" fill="#35F" stroke="#35F" stroke-width=".1"/></svg>