<svg width="111" height="111" fill="none" xmlns="http://www.w3.org/2000/svg"><g filter="url(#filter0_d)"><rect x="10" y="10" width="81" height="81" rx="4" fill="#fff"/></g><path d="M40.375 51.625h1.875v1.25h-1.875v-1.25zm4.375 3.125h1.875V56H44.75v-1.25zm-4.375 0H43.5V56h-3.125v-1.25zm-5 0h3.75V56h-3.75v-1.25zm3.75 3.125h7.5v1.25h-7.5v-1.25zm-3.75 0h2.5v1.25h-2.5v-1.25zm7.5 3.125h3.75v1.25h-3.75V61zm-7.5 0h6.25v1.25h-6.25V61zm3.75 3.125h3.75v1.25h-3.75v-1.25zm-3.75 0h2.5v1.25h-2.5v-1.25z" fill="#35F"/><path d="M68.5 49.75a.625.625 0 00-.625-.625h-3.75a.625.625 0 00-.625.625v3.125h-3.125a.625.625 0 00-.625.625v3.125h-3.125a.625.625 0 00-.625.625v3.125h-3.125a.625.625 0 00-.625.625v3.75h-4.483a1.875 1.875 0 100 1.25h.733v1.875a.625.625 0 01-.625.625h-13.75a.625.625 0 01-.625-.625V53.5h3.125a1.877 1.877 0 001.875-1.875V48.5h9.375a.625.625 0 01.625.625v.625h1.25v-.625a1.877 1.877 0 00-1.875-1.875h-9.482a1.862 1.862 0 00-1.326.55l-4.268 4.267a1.861 1.861 0 00-.549 1.326v14.482a1.877 1.877 0 001.875 1.875h13.75a1.877 1.877 0 001.875-1.875V66h20v-1.25H68.5v-15zm-31.25-.366v2.241a.625.625 0 01-.625.625h-2.241l2.866-2.866zM46 66a.625.625 0 110-1.25.625.625 0 010 1.25zm7.5-4.375H56v3.125h-2.5v-3.125zm3.75-3.75h2.5v6.875h-2.5v-6.875zm3.75-3.75h2.5V64.75H61V54.125zm3.75 10.625V50.375h2.5V64.75h-2.5zM34.125 47.876a1.875 1.875 0 001.692-2.683l1.875-1.875a1.874 1.874 0 002.575-1.067h2.715a1.875 1.875 0 003.617-.315l3.53-3.026a1.875 1.875 0 10-.85-.917l-2.99 2.563a1.874 1.874 0 00-3.306.445h-2.715a1.876 1.876 0 10-3.46 1.433l-1.875 1.875a1.875 1.875 0 10-.808 3.567zM51 36.626a.625.625 0 110 1.25.625.625 0 010-1.25zM44.75 41a.625.625 0 110 1.25.625.625 0 010-1.25zm-6.25 0a.625.625 0 110 1.249.625.625 0 010-1.25zm-4.375 4.375a.625.625 0 110 1.25.625.625 0 010-1.25z" fill="#35F"/><path d="M56.747 46.871l-4.13 4.131h-5.474a1.875 1.875 0 100 1.25H48.5v11.25h1.25v-11.25h3.125a.625.625 0 00.442-.183l4.51-4.51a8.147 8.147 0 10-1.08-.688zm-11.372 5.381a.625.625 0 110-1.25.625.625 0 010 1.25zm21.263-7.175l-3.621-4.075h5.454a6.852 6.852 0 01-1.833 4.075zm1.833-5.325H62.25v-6.221a6.886 6.886 0 016.221 6.221zM61 33.531v6.846c0 .153.056.301.158.415l4.547 5.116A6.875 6.875 0 1161 33.53z" fill="#35F"/><defs><filter id="filter0_d" x="0" y="0" width="111" height="111" filterUnits="userSpaceOnUse" color-interpolation-filters="sRGB"><feFlood flood-opacity="0" result="BackgroundImageFix"/><feColorMatrix in="SourceAlpha" values="0 0 0 0 0 0 0 0 0 0 0 0 0 0 0 0 0 0 127 0"/><feOffset dx="5" dy="5"/><feGaussianBlur stdDeviation="7.5"/><feColorMatrix values="0 0 0 0 0 0 0 0 0 0 0 0 0 0 0 0 0 0 0.1 0"/><feBlend in2="BackgroundImageFix" result="effect1_dropShadow"/><feBlend in="SourceGraphic" in2="effect1_dropShadow" result="shape"/></filter></defs></svg>