<svg width="38" height="23" fill="none" xmlns="http://www.w3.org/2000/svg"><path d="M36.5 2.75a.625.625 0 00-.625-.625h-3.75a.625.625 0 00-.625.625v3.125h-3.125a.625.625 0 00-.625.625v3.125h-3.125a.625.625 0 00-.625.625v3.125h-3.125a.625.625 0 00-.625.625v3.75h-4.482a1.876 1.876 0 100 1.25h.732v1.875a.625.625 0 01-.625.625H2.125a.626.626 0 01-.625-.625V6.5h3.125A1.877 1.877 0 006.5 4.625V1.5h9.375a.626.626 0 01.625.625v.625h1.25v-.625A1.877 1.877 0 0015.875.25H6.393A1.863 1.863 0 005.067.8L.799 5.066A1.863 1.863 0 00.25 6.393v14.482a1.877 1.877 0 001.875 1.875h13.75a1.877 1.877 0 001.875-1.875V19h20v-1.25H36.5v-15zM5.25 2.384v2.241a.626.626 0 01-.625.625H2.384L5.25 2.384zM14 19a.625.625 0 110-1.25.625.625 0 010 1.25zm7.5-4.375H24v3.125h-2.5v-3.125zm3.75-3.75h2.5v6.875h-2.5v-6.875zM29 7.125h2.5V17.75H29V7.125zm3.75 10.625V3.375h2.5V17.75h-2.5z" fill="#35F"/></svg>