<svg width="111" height="111" fill="none" xmlns="http://www.w3.org/2000/svg"><g filter="url(#filter0_d)"><rect x="10" y="10" width="81" height="81" rx="4" fill="#fff"/></g><path d="M70.982 32.94A2 2 0 0068.983 31H33a2 2 0 00-2 2v36a2 2 0 002 2h35.983a2 2 0 002-2c0-44.38.04-34.667 0-36.06zm-1.332 0l-3.106 10.52-4.225-1.587v-9.54h6.664a.667.667 0 01.666.614v-.007zm-8.663 9.273L56.075 55.72l-4.418-4.973V32.333h9.33v9.88zM50.325 49.1c-3.998-4.973-4.092-5.127-4.178-5.22a.666.666 0 00-.487-.213h-2.665a.666.666 0 000 1.333h1.552l-3.551 6.667V32.333h9.329V49.1zm-9.33 5.4l4.778-8.96 4.552 5.693v18.434h-9.33V54.5zm10.663-1.747c4.484 5.047 4.184 4.747 4.377 4.84.194.094.107.074 2.953.074a.666.666 0 000-1.334h-1.713l3.712-10.213v23.547h-9.33V52.753zm-18.659-20.42h6.664v11.334H38.33a.666.666 0 000 1.333h1.333v9.147l-3.792 6.326-3.538 1.514V33c0-.368.298-.667.666-.667zM32.333 69v-5.56l4.258-1.827c.28-.12.087.1 3.072-4.873v12.927h-6.664a.667.667 0 01-.666-.667zm36.65.667H62.32v-12h1.333a.666.666 0 000-1.334H62.32v-13.04l4.432 1.667a.666.666 0 00.9-.44l1.999-6.893V69a.667.667 0 01-.667.667z" fill="#35F"/><path d="M56.795 59.193a.667.667 0 00-.946 0l-2 2a.67.67 0 00.947.947l.86-.867v4.394a.666.666 0 101.332 0v-4.394l.86.867a.669.669 0 10.946-.947l-1.999-2zM45.187 42.14a.667.667 0 00.946 0l2-2a.67.67 0 00-.947-.947l-.86.867v-4.393a.666.666 0 10-1.332 0v4.393l-.86-.867a.669.669 0 10-.946.947l1.999 2zM67.65 56.332h-1.332a.666.666 0 000 1.333h1.332a.666.666 0 000-1.333zM34.332 44.997h1.333a.666.666 0 100-1.333h-1.333a.666.666 0 100 1.333z" fill="#35F"/><defs><filter id="filter0_d" x="0" y="0" width="111" height="111" filterUnits="userSpaceOnUse" color-interpolation-filters="sRGB"><feFlood flood-opacity="0" result="BackgroundImageFix"/><feColorMatrix in="SourceAlpha" values="0 0 0 0 0 0 0 0 0 0 0 0 0 0 0 0 0 0 127 0"/><feOffset dx="5" dy="5"/><feGaussianBlur stdDeviation="7.5"/><feColorMatrix values="0 0 0 0 0 0 0 0 0 0 0 0 0 0 0 0 0 0 0.1 0"/><feBlend in2="BackgroundImageFix" result="effect1_dropShadow"/><feBlend in="SourceGraphic" in2="effect1_dropShadow" result="shape"/></filter></defs></svg>