<svg width="111" height="111" viewBox="0 0 111 111" fill="none" xmlns="http://www.w3.org/2000/svg">
<g filter="url(#filter0_d)">
<rect x="10" y="10" width="81" height="81" rx="4" fill="white"/>
</g>
<path d="M31.0321 63.337C30.8988 63.337 30.8238 63.3353 30.8104 63.3353C30.3504 63.322 29.9887 62.9387 30.0004 62.4787C30.0137 62.0188 30.3837 61.6888 30.8571 61.6688C31.1338 61.6655 59.4397 62.1688 65.8599 37.2963C65.9749 36.8497 66.4282 36.5847 66.8749 36.698C67.3199 36.813 67.5883 37.268 67.4733 37.7129C61.0297 62.6821 33.7789 63.337 31.0321 63.337Z" fill="#3355FF"/>
<path d="M69.1683 42.666C68.88 42.666 68.6 42.5176 68.445 42.2493L66.3616 38.6408L62.7531 40.7242C62.3548 40.9526 61.8447 40.8176 61.6147 40.4192C61.3847 40.0209 61.5214 39.5108 61.9197 39.2808L66.2499 36.7808C66.6466 36.5491 67.1566 36.6858 67.3883 37.0858L69.8883 41.4159C70.1183 41.8143 69.9817 42.3243 69.5833 42.5543C69.4533 42.631 69.31 42.666 69.1683 42.666Z" fill="#3355FF"/>
<path d="M65.8348 69.9989C65.3748 69.9989 65.0015 69.6256 65.0015 69.1657V47.5012C65.0015 47.0413 65.3748 46.668 65.8348 46.668C66.2948 46.668 66.6682 47.0413 66.6682 47.5012V69.1657C66.6682 69.6256 66.2948 69.9989 65.8348 69.9989Z" fill="#3355FF"/>
<path d="M55.8346 70.0014C55.3746 70.0014 55.0012 69.6281 55.0012 69.1682V59.1692C55.0012 58.7092 55.3746 58.3359 55.8346 58.3359C56.2946 58.3359 56.6679 58.7092 56.6679 59.1692V69.1682C56.6679 69.6281 56.2946 70.0014 55.8346 70.0014Z" fill="#3355FF"/>
<path d="M45.8342 70.0028C45.3742 70.0028 45.0009 69.6295 45.0009 69.1695V64.1693C45.0009 63.7093 45.3742 63.3359 45.8342 63.3359C46.2942 63.3359 46.6676 63.7093 46.6676 64.1693V69.1695C46.6676 69.6295 46.2942 70.0028 45.8342 70.0028Z" fill="#3355FF"/>
<path d="M35.8338 70.0027C35.3738 70.0027 35.0005 69.6294 35.0005 69.1694V66.6693C35.0005 66.2093 35.3738 65.8359 35.8338 65.8359C36.2939 65.8359 36.6672 66.2093 36.6672 66.6693V69.1694C36.6672 69.6294 36.2939 70.0027 35.8338 70.0027Z" fill="#3355FF"/>
<path d="M42.0974 49.7319C41.884 49.7319 41.6707 49.6503 41.5073 49.4886L35.5138 43.4942C35.2005 43.1809 35.1871 42.676 35.4838 42.3477L40.394 36.8966C43.8824 32.8686 49.4159 30.0923 54.1528 30.0039C54.3494 29.9773 54.5978 30.0889 54.7578 30.2472C54.9178 30.4089 55.0045 30.6272 55.0011 30.8522C54.9128 35.5884 52.136 41.1211 48.0942 44.6191L42.6541 49.5186C42.4974 49.6619 42.2974 49.7319 42.0974 49.7319ZM37.2522 42.876L42.129 47.7521L46.9925 43.3709C50.4526 40.3762 52.8961 35.8017 53.2827 31.7221C49.2026 32.1087 44.6291 34.5518 41.644 37.9998L37.2522 42.876Z" fill="#3355FF"/>
<path d="M44.3408 53.6876C44.2658 53.6876 44.1891 53.6777 44.1141 53.656C43.8241 53.5727 43.6008 53.3427 43.5291 53.0477L42.3508 48.1315C42.2441 47.6849 42.5208 47.235 42.9674 47.1267C43.4191 47.0217 43.8658 47.2966 43.9725 47.7433L44.7542 51.0079C46.2025 48.7432 46.4909 45.8451 46.5209 44.1503C46.5292 43.6903 46.9259 43.3304 47.3692 43.332C47.8293 43.3387 48.1959 43.7203 48.1876 44.1786C48.1176 48.1215 46.9609 51.4112 44.9292 53.4427C44.7708 53.601 44.5575 53.6876 44.3408 53.6876Z" fill="#3355FF"/>
<path d="M37.069 42.6779C37.004 42.6779 36.939 42.6713 36.874 42.6546L31.9571 41.4762C31.6638 41.4062 31.4305 41.1845 31.3488 40.8929C31.2671 40.6029 31.3488 40.2912 31.5605 40.0778C33.5922 38.0461 36.8823 36.8894 40.8274 36.8194C41.2891 36.7777 41.6675 37.1777 41.6741 37.6378C41.6808 38.0978 41.3175 38.4778 40.8558 38.4861C39.159 38.5161 36.2623 38.8045 33.9972 40.2528L37.2623 41.0345C37.709 41.1412 37.9857 41.5912 37.879 42.0396C37.7857 42.4212 37.4457 42.6779 37.069 42.6779Z" fill="#3355FF"/>
<path d="M30.8337 55.0055C30.6154 55.0055 30.4037 54.9189 30.2437 54.7622C30.027 54.5456 29.947 54.2273 30.0354 53.934C30.3104 53.0141 31.7404 48.3712 32.8605 47.2513C34.2088 45.9014 36.4039 45.8998 37.7573 47.2513C39.1073 48.6012 39.1073 50.7976 37.7573 52.1475C36.6389 53.2674 31.9938 54.6955 31.0737 54.9705C30.9937 54.9938 30.9137 55.0055 30.8337 55.0055ZM35.3089 47.9046C34.8488 47.9046 34.3888 48.0796 34.0388 48.4295C33.5655 48.9028 32.7521 50.9893 32.1154 52.8907C34.0172 52.2541 36.1056 51.4409 36.5772 50.9693C37.2773 50.2693 37.2773 49.1294 36.5772 48.4312C36.2272 48.0796 35.7672 47.9046 35.3089 47.9046Z" fill="#3355FF"/>
<defs>
<filter id="filter0_d" x="0" y="0" width="111" height="111" filterUnits="userSpaceOnUse" color-interpolation-filters="sRGB">
<feFlood flood-opacity="0" result="BackgroundImageFix"/>
<feColorMatrix in="SourceAlpha" type="matrix" values="0 0 0 0 0 0 0 0 0 0 0 0 0 0 0 0 0 0 127 0"/>
<feOffset dx="5" dy="5"/>
<feGaussianBlur stdDeviation="7.5"/>
<feColorMatrix type="matrix" values="0 0 0 0 0 0 0 0 0 0 0 0 0 0 0 0 0 0 0.1 0"/>
<feBlend mode="normal" in2="BackgroundImageFix" result="effect1_dropShadow"/>
<feBlend mode="normal" in="SourceGraphic" in2="effect1_dropShadow" result="shape"/>
</filter>
</defs>
</svg>
