<svg width="42" height="24" viewBox="0 0 42 24" fill="none" xmlns="http://www.w3.org/2000/svg">
<path d="M40.4304 21.8008H37.6882V1.25471C37.6882 0.834774 37.4091 0.492969 37.0345 0.492969H31.4878C31.1132 0.492969 30.8341 0.834774 30.8341 1.25471V21.8008H28.8966V8.37215C28.8966 7.95222 28.6174 7.61041 28.2428 7.61041H22.6584C22.2838 7.61041 22.0047 7.95222 22.0047 8.37215V21.8008H20.0672V7.30454C20.0672 6.8846 19.788 6.54279 19.4134 6.54279H13.8668C13.4922 6.54279 13.213 6.8846 13.213 7.30454V21.8008H11.2755V11.486C11.2755 11.0661 10.9964 10.7243 10.6218 10.7243H5.03737C4.66277 10.7243 4.38365 11.0661 4.38365 11.486V21.8008H1.60372C1.22911 21.8008 0.95 22.1426 0.95 22.5625C0.95 22.9825 1.22911 23.3243 1.60372 23.3243H4.99964H10.5463H13.8668H19.4134H22.6584H28.2051H31.4501H36.9968H40.3927C40.7666 23.3243 41.0454 22.9837 41.0464 22.5649C41.0851 22.142 40.8043 21.8008 40.4304 21.8008ZM9.93032 21.8008H5.69109V12.2478H9.93032V21.8008ZM18.7597 21.8008H14.5205V8.06628H18.7597V21.8008ZM27.5514 21.8008H23.3121V9.1339H27.5514V21.8008ZM36.3808 21.8008H32.1415V2.01646H36.3808V21.8008Z" fill="#3355FF" stroke="#3355FF" stroke-width="0.1"/>
</svg>
