<svg width="38" height="23" viewBox="0 0 38 23" fill="none" xmlns="http://www.w3.org/2000/svg">
<path d="M36.5 2.75001C36.5 2.58425 36.4341 2.42528 36.3169 2.30807C36.1997 2.19086 36.0407 2.12501 35.875 2.12501H32.125C31.9592 2.12501 31.8002 2.19086 31.683 2.30807C31.5658 2.42528 31.5 2.58425 31.5 2.75001V5.87501H28.375C28.2092 5.87501 28.0502 5.94086 27.933 6.05807C27.8158 6.17528 27.75 6.33425 27.75 6.50001V9.62501H24.625C24.4592 9.62501 24.3002 9.69086 24.183 9.80807C24.0658 9.92528 24 10.0842 24 10.25V13.375H20.875C20.7092 13.375 20.5502 13.4409 20.433 13.5581C20.3158 13.6753 20.25 13.8342 20.25 14V17.75H15.7675C15.62 17.333 15.3299 16.9815 14.9484 16.7577C14.5669 16.5339 14.1186 16.4522 13.6826 16.527C13.2467 16.6018 12.8512 16.8283 12.5661 17.1665C12.2811 17.5046 12.1247 17.9327 12.1247 18.375C12.1247 18.8173 12.2811 19.2454 12.5661 19.5835C12.8512 19.9217 13.2467 20.1482 13.6826 20.223C14.1186 20.2978 14.5669 20.2161 14.9484 19.9923C15.3299 19.7685 15.62 19.417 15.7675 19H16.5V20.875C16.4998 21.0407 16.4339 21.1996 16.3167 21.3167C16.1995 21.4339 16.0407 21.4998 15.875 21.5H2.12498C1.95927 21.4998 1.80041 21.4339 1.68324 21.3167C1.56608 21.1996 1.50017 21.0407 1.49998 20.875V6.50001H4.62498C5.12208 6.49944 5.59867 6.30171 5.95017 5.9502C6.30168 5.5987 6.49941 5.12211 6.49998 4.62501V1.50001H15.875C16.0407 1.5002 16.1995 1.56611 16.3167 1.68327C16.4339 1.80044 16.4998 1.9593 16.5 2.12501V2.75001H17.75V2.12501C17.7494 1.6279 17.5517 1.15132 17.2002 0.79981C16.8487 0.448302 16.3721 0.250575 15.875 0.250007H6.39271C6.14638 0.24934 5.90236 0.297537 5.67478 0.391807C5.4472 0.486078 5.24058 0.62455 5.06687 0.799209L0.799141 5.06694C0.624485 5.24065 0.486017 5.44727 0.391753 5.67485C0.297488 5.90243 0.2493 6.14645 0.249977 6.39278V20.875C0.250545 21.3721 0.448272 21.8487 0.799779 22.2002C1.15129 22.5517 1.62787 22.7494 2.12498 22.75H15.875C16.3721 22.7494 16.8487 22.5517 17.2002 22.2002C17.5517 21.8487 17.7494 21.3721 17.75 20.875V19H37.75V17.75H36.5V2.75001ZM5.24998 2.38391V4.62501C5.24979 4.79071 5.18388 4.94957 5.06671 5.06674C4.94954 5.18391 4.79068 5.24982 4.62498 5.25001H2.38388L5.24998 2.38391ZM14 19C13.8764 19 13.7555 18.9634 13.6527 18.8947C13.55 18.826 13.4699 18.7284 13.4226 18.6142C13.3752 18.5 13.3629 18.3743 13.387 18.2531C13.4111 18.1318 13.4706 18.0205 13.558 17.9331C13.6454 17.8457 13.7568 17.7861 13.878 17.762C13.9993 17.7379 14.125 17.7503 14.2392 17.7976C14.3534 17.8449 14.451 17.925 14.5196 18.0278C14.5883 18.1306 14.625 18.2514 14.625 18.375C14.6248 18.5407 14.5589 18.6996 14.4417 18.8167C14.3245 18.9339 14.1657 18.9998 14 19ZM21.5 14.625H24V17.75H21.5V14.625ZM25.25 10.875H27.75V17.75H25.25V10.875ZM29 7.12501H31.5V17.75H29V7.12501ZM32.75 17.75V3.37501H35.25V17.75H32.75Z" fill="#3355FF"/>
</svg>
