<svg width="7" height="8" viewBox="0 0 7 8" fill="none" xmlns="http://www.w3.org/2000/svg">
<path d="M3.18703 7.46605C3.31215 7.59098 3.48247 7.66125 3.66015 7.66125C3.83783 7.66125 4.00815 7.59098 4.13327 7.46605L6.13238 5.48633C6.30141 5.31894 6.36742 5.07496 6.30555 4.8463C6.24369 4.61764 6.06333 4.43903 5.83243 4.37776C5.60153 4.3165 5.35517 4.38187 5.18614 4.54926L4.32652 5.40714V1.05835C4.32652 0.693888 4.02817 0.398438 3.66015 0.398438C3.29212 0.398438 2.99378 0.693888 2.99378 1.05835V5.40714L2.13416 4.54926C1.87286 4.2905 1.44922 4.2905 1.18792 4.54926C0.926619 4.80803 0.926619 5.22757 1.18792 5.48633L3.18703 7.46605Z" fill="#3355FF"/>
</svg>
